# xmcd CD database file
#
# Track frame offsets:
#	150
#	1850
#	14322
#	25210
#	35117
#	49907
#	62377
#	73225
#	83937
#	98842
#	112552
#	126792
#	137802
#	149125
#	162995
#	192137
#	208687
#	221095
#	235372
#	249992
#	263872
#	276017
#
# Disc length: 3981 seconds
#
# Revision: 3
# Processed by: cddbd v1.5.2PL0 Copyright (c) Steve Scherf et al.
# Submitted via: CDex 1.70beta3
#
DISCID=400f8b16
DTITLE=円谷プロダクション - ウルトラマン主題歌・挿入歌大全集 I DISC3
DYEAR=2003
DGENRE=Soundtrack
TTITLE0=冬木透/ウルトラマンレオ メインタイトル
TTITLE1=真夏竜／少年少女合唱団みずうみ/ウルトラマンレオ
TTITLE2=ヒデ夕樹／少年少女合唱団みずうみ/戦え！ウルトラマンレオ
TTITLE3=真夏竜／少年少女合唱団みずうみ/MACのマーチ
TTITLE4=真夏竜/星空のバラード
TTITLE5=子門真人／コロムビアゆりかご会/ウルトラマンレオ (COLUMBIA Cover Version)
TTITLE6=子門真人／コロムビアゆりかご会/戦え！ウルトラマンレオ (COLUMBIA Cover Version)
TTITLE7=ささきいさお／ウルトラマンの歌
TTITLE8=ロサンゼルス・ウルトラ・バンド/ディスコウルトラマン
TTITLE9=水木一郎／コロムビアゆりかご会/ウルトラ・愛の鐘
TTITLE10=水木一郎／コロムビアゆりかご会/ウルトラマン物語
TTITLE11=ささきいさお／コロムビアゆりかご会/ザ・ウルトラマン
TTITLE12=ささきいさお/愛の勇者たち
TTITLE13=ロサンゼルス・ウルトラ・バンド/ザ☆ウルトラマン・ディスコフィーバー
TTITLE14=ささきいさお／くにたちカンマーコール/ウルトラマン賛歌
TTITLE15=コロムビアゆりかご会/ウルトラの星
TTITLE16=堀江美都子/ムツミの歌
TTITLE17=ささきいさお／くにたちカンマーコール/スーパーマードック
TTITLE18=ささきいさお／くにたちカンマーコール/我ら科学警備隊
TTITLE19=滝口順平/ロボット・ピグの歌
TTITLE20=富山敬/明日に……
TTITLE21=ささきいさお／くにたちカンマーコール/怪獣レクイエム
EXTD=YEAR: 2003
EXTT0=
EXTT1=
EXTT2=
EXTT3=
EXTT4=
EXTT5=
EXTT6=
EXTT7=
EXTT8=
EXTT9=
EXTT10=
EXTT11=
EXTT12=
EXTT13=
EXTT14=
EXTT15=
EXTT16=
EXTT17=
EXTT18=
EXTT19=
EXTT20=
EXTT21=
PLAYORDER=
